<svg width="85" height="32" viewBox="0 0 85 32" fill="none" xmlns="http://www.w3.org/2000/svg">
<g filter="url(#filter0_d)">
<path d="M28.4 23H23.75V8.9L18.2 23H14.36L8.81 9.08V23H4.31V1.73H10.49L16.34 16.1L21.89 1.73H28.4V23ZM35.4245 13.76H41.3945C41.3545 13.08 41.0845 12.49 40.5845 11.99C40.1045 11.49 39.3745 11.24 38.3945 11.24C37.5145 11.24 36.8145 11.5 36.2945 12.02C35.7745 12.54 35.4845 13.12 35.4245 13.76ZM41.7245 17.63L45.5345 18.71C45.1545 20.09 44.3645 21.23 43.1645 22.13C41.9645 23.01 40.4645 23.45 38.6645 23.45C36.5045 23.45 34.6645 22.73 33.1445 21.29C31.6445 19.85 30.8945 17.92 30.8945 15.5C30.8945 13.18 31.6245 11.29 33.0845 9.83C34.5645 8.37 36.3145 7.64 38.3345 7.64C40.6545 7.64 42.4745 8.32 43.7945 9.68C45.1345 11.02 45.8045 12.89 45.8045 15.29C45.8045 16.05 45.7745 16.52 45.7145 16.7H35.3345C35.3745 17.52 35.7245 18.21 36.3845 18.77C37.0445 19.31 37.8245 19.58 38.7245 19.58C40.2645 19.58 41.2645 18.93 41.7245 17.63ZM62.8023 1.28V20.33C62.8023 21.23 62.8423 22.12 62.9223 23H58.5423C58.4623 22.52 58.4223 22.04 58.4223 21.56C58.0623 22.08 57.5223 22.51 56.8023 22.85C56.1023 23.17 55.3123 23.33 54.4323 23.33C52.3123 23.33 50.5523 22.6 49.1523 21.14C47.7523 19.66 47.0523 17.78 47.0523 15.5C47.0523 13.26 47.7323 11.41 49.0923 9.95C50.4523 8.47 52.1823 7.73 54.2823 7.73C56.3223 7.73 57.6623 8.24 58.3023 9.26V1.28H62.8023ZM52.6023 12.8C51.9623 13.44 51.6423 14.35 51.6423 15.53C51.6423 16.71 51.9623 17.63 52.6023 18.29C53.2623 18.93 54.0623 19.25 55.0023 19.25C55.9423 19.25 56.7323 18.93 57.3723 18.29C58.0323 17.63 58.3623 16.71 58.3623 15.53C58.3623 14.35 58.0323 13.44 57.3723 12.8C56.7323 12.16 55.9423 11.84 55.0023 11.84C54.0623 11.84 53.2623 12.16 52.6023 12.8ZM70.8716 23H66.3116V8.09H70.8716V23ZM66.7016 5.42C66.1816 4.9 65.9216 4.27 65.9216 3.53C65.9216 2.79 66.1816 2.16 66.7016 1.64C67.2216 1.12 67.8416 0.859999 68.5616 0.859999C69.3016 0.859999 69.9316 1.12 70.4516 1.64C70.9916 2.16 71.2616 2.79 71.2616 3.53C71.2616 4.27 70.9916 4.9 70.4516 5.42C69.9316 5.94 69.3016 6.2 68.5616 6.2C67.8416 6.2 67.2216 5.94 66.7016 5.42Z" fill="#0A1B32"/>
<path d="M74.9862 22.37C74.3862 21.75 74.0862 21.02 74.0862 20.18C74.0862 19.34 74.3862 18.62 74.9862 18.02C75.5862 17.42 76.3062 17.12 77.1462 17.12C77.9862 17.12 78.7062 17.42 79.3062 18.02C79.9262 18.62 80.2362 19.34 80.2362 20.18C80.2362 21 79.9262 21.72 79.3062 22.34C78.7062 22.96 77.9862 23.27 77.1462 23.27C76.3062 23.27 75.5862 22.97 74.9862 22.37Z" fill="#FC569A"/>
</g>
<defs>
<filter id="filter0_d" x="0.309998" y="0.859985" width="83.9262" height="30.59" filterUnits="userSpaceOnUse" color-interpolation-filters="sRGB">
<feFlood flood-opacity="0" result="BackgroundImageFix"/>
<feColorMatrix in="SourceAlpha" type="matrix" values="0 0 0 0 0 0 0 0 0 0 0 0 0 0 0 0 0 0 127 0"/>
<feOffset dy="4"/>
<feGaussianBlur stdDeviation="2"/>
<feColorMatrix type="matrix" values="0 0 0 0 0 0 0 0 0 0 0 0 0 0 0 0 0 0 0.25 0"/>
<feBlend mode="normal" in2="BackgroundImageFix" result="effect1_dropShadow"/>
<feBlend mode="normal" in="SourceGraphic" in2="effect1_dropShadow" result="shape"/>
</filter>
</defs>
</svg>
